<?xml version="1.0" standalone="no"?>
<!DOCTYPE svg PUBLIC "-//W3C//DTD SVG 20010904//EN"
 "http://www.w3.org/TR/2001/REC-SVG-20010904/DTD/svg10.dtd">
<svg version="1.0" xmlns="http://www.w3.org/2000/svg"
 width="1000.000000pt" height="1000.000000pt" viewBox="0 0 1000.000000 1000.000000"
 preserveAspectRatio="xMidYMid meet">

<g transform="translate(0.000000,1000.000000) scale(0.100000,-0.100000)"
fill="#000000" stroke="none">
<path d="M4690 9349 c-917 -68 -1769 -411 -2479 -998 -162 -134 -428 -400
-562 -562 -415 -502 -709 -1077 -869 -1697 -232 -894 -173 -1834 167 -2702
112 -287 321 -667 516 -938 260 -363 626 -729 989 -989 271 -195 650 -404 938
-516 373 -146 792 -248 1195 -288 170 -18 660 -18 830 0 305 30 665 106 940
196 419 139 833 349 1193 608 355 255 718 615 973 967 661 910 945 2014 803
3125 -105 826 -438 1588 -978 2240 -130 157 -398 425 -557 556 -801 662 -1789
1015 -2814 1008 -99 -1 -227 -5 -285 -10z m1834 -1939 c27 -12 166 -145 397
-377 381 -382 387 -391 376 -475 -3 -22 -17 -56 -31 -76 -14 -21 -182 -193
-373 -383 -315 -313 -352 -347 -394 -358 -85 -23 -170 14 -208 91 -51 106 -32
142 202 376 l192 193 -455 -4 c-426 -3 -460 -5 -530 -25 -226 -63 -376 -145
-533 -291 -84 -77 -130 -97 -201 -85 -81 13 -158 125 -140 201 15 60 47 105
126 174 248 216 539 344 860 379 54 5 272 10 485 10 l387 0 -191 193 c-229
229 -249 265 -208 364 21 50 42 72 90 94 52 24 99 24 149 -1z m-3106 -661
c644 -70 1174 -526 1331 -1147 39 -150 43 -208 51 -612 7 -390 8 -408 32 -501
105 -393 391 -703 763 -828 167 -56 226 -61 679 -61 l411 0 -192 193 c-195
195 -223 233 -223 299 1 44 31 110 64 136 71 56 158 53 233 -7 27 -21 197
-189 379 -372 301 -304 332 -338 344 -381 10 -39 10 -57 0 -95 -12 -44 -44
-79 -369 -407 -362 -365 -399 -395 -469 -396 -37 0 -97 23 -126 48 -27 24 -56
91 -56 130 0 66 28 104 223 299 l191 193 -389 0 c-481 0 -596 12 -807 81 -227
74 -407 187 -593 374 -185 185 -298 363 -375 594 -65 194 -71 246 -80 696 -8
438 -13 477 -67 629 -136 380 -441 656 -837 758 -70 18 -124 22 -391 27 -188
4 -320 11 -335 18 -35 15 -80 62 -96 100 -39 90 17 204 114 233 40 12 477 12
590 -1z m887 -2758 c70 -32 105 -86 105 -162 0 -62 -21 -98 -106 -179 -192
-183 -457 -321 -716 -374 -140 -29 -270 -37 -519 -34 l-246 3 -40 27 c-112 74
-106 232 12 300 39 22 50 23 350 29 339 7 383 13 554 79 131 51 316 173 401
265 31 34 95 65 135 65 17 0 48 -9 70 -19z"/>
</g>
</svg>
