<svg id="Layer_1" data-name="Layer 1" xmlns="http://www.w3.org/2000/svg" xmlns:xlink="http://www.w3.org/1999/xlink" viewBox="0 0 1504.72 211.39">
<defs>
<style>.cls-1{fill:none;}.cls-2,.cls-6{fill:#091a2c;}.cls-3{clip-path:url(#clip-path);}.cls-4{fill:#1e1e1e;}.cls-5{clip-path:url(#clip-path-2);}.cls-6{stroke:#091a2c;stroke-miterlimit:10;stroke-width:11px;}
</style>
<clipPath id="clip-path" transform="translate(446.84 -290.31)">
<rect class="cls-1" x="1017.93" y="352.66" width="39.96" height="143.65"/>
</clipPath>
<clipPath id="clip-path-2" transform="translate(446.84 -290.31)">
<rect class="cls-1" x="863.93" y="314.66" width="130" height="186"/>
</clipPath>
</defs>
<path class="cls-2" d="M-446.84,301.18h69.07a57.34,57.34,0,0,1,27.2,6.39,46.51,46.51,0,0,1,19.31,18.36q7.06,12,7.07,29t-6.26,27.74q-6.26,10.74-15.09,16.18t-16.18,6.25l44.05,75.6h-38.07l-40-73h-17.41v73h-33.72Zm33.72,82.54h23.25q12.92,0,21.89-6.4t9.11-21.48q0-15.09-9-21.34t-21.75-6.26h-23.53Zm149.61,48.94A26.37,26.37,0,0,0-259.56,446a25.29,25.29,0,0,0,10.47,9.24,38.92,38.92,0,0,0,16.72,3.27A49.47,49.47,0,0,0-217,456.32a48,48,0,0,0,11.29-5.17,29,29,0,0,0,7.07-6.11l14.55,21.48a39.41,39.41,0,0,1-10.2,8.7,53.14,53.14,0,0,1-16,6.26q-9.66,2.44-24.34,2.44-18.36,0-32.36-7.2a53.17,53.17,0,0,1-21.76-20.67q-7.74-13.59-7.75-32.5a61.58,61.58,0,0,1,6.94-29.37,52,52,0,0,1,20.26-20.8q13.32-7.61,32-7.61,17.67,0,30.59,6.8a46.79,46.79,0,0,1,20,19.58q7.06,12.92,7.07,31.68c0,.72-.05,2.22-.14,4.48a22,22,0,0,1-.27,4.35Zm50.85-21.48a21.4,21.4,0,0,0-2.71-9.25,21.23,21.23,0,0,0-7.75-8.29q-5.17-3.54-13.74-3.53t-14.27,3.39a22.83,22.83,0,0,0-8.43,8.16,23,23,0,0,0-3.13,9.52ZM-166.88,369h20.12V338.71q0-16.59,6.53-27.19a42.2,42.2,0,0,1,16.86-15.91,46.13,46.13,0,0,1,21.34-5.3q13.47,0,20.54,3.67t9,5.3l-13.33,25.43a22.1,22.1,0,0,0-3.8-3q-3-2.18-8.16-2.17a14.81,14.81,0,0,0-6.93,1.77q-3.27,1.76-5.58,6.52T-112.49,342V369h29.23v28.55h-29.23v83.08h-34.27V397.58h-20.12ZM22.88,480.66V461.08q-1.1,3.14-6.12,8.57a49.85,49.85,0,0,1-13.6,9.92,43.57,43.57,0,0,1-20,4.35,52.87,52.87,0,0,1-28.28-7.61,54.55,54.55,0,0,1-19.45-21.08q-7.07-13.32-7.07-30.32t7.07-30.32A54.52,54.52,0,0,1-45.1,373.52a52.09,52.09,0,0,1,28.28-7.75,46.34,46.34,0,0,1,19.44,3.8A43.57,43.57,0,0,1,16,378.28q5.16,5,6.66,8.83V369h34V480.66ZM-37.9,424.91a32.23,32.23,0,0,0,4.22,16.59,29.83,29.83,0,0,0,11.15,11.15,30,30,0,0,0,15.09,3.94,29.56,29.56,0,0,0,15.36-3.94,28.64,28.64,0,0,0,10.47-11.28,33.73,33.73,0,0,0,3.95-16.46,33.72,33.72,0,0,0-3.95-16.45A28.64,28.64,0,0,0,7.92,397.18,28.81,28.81,0,0,0-7.44,393.1a29.21,29.21,0,0,0-15.09,4.08,29.76,29.76,0,0,0-11.15,11.15A32.22,32.22,0,0,0-37.9,424.91Zm180.5,31.68q8.84,0,14.41-3a49.13,49.13,0,0,0,7.34-4.48l16.05,23.65a49.72,49.72,0,0,1-7.21,4.22A60.89,60.89,0,0,1,160,481.75a67.58,67.58,0,0,1-17.94,2.17q-17.82,0-31.82-7.07a55.48,55.48,0,0,1-22-20.39q-8-13.33-8-31.68t8-31.68a54.47,54.47,0,0,1,22-20.26q14-7.08,31.82-7.07a67.1,67.1,0,0,1,17.81,2.17,64.1,64.1,0,0,1,13.19,5,35.43,35.43,0,0,1,7.2,4.49L164,401.25a23,23,0,0,0-3.67-3,31.64,31.64,0,0,0-7.21-3.53,29.83,29.83,0,0,0-10.47-1.63A28.24,28.24,0,0,0,128.19,397a30.65,30.65,0,0,0-10.88,11.15,31.77,31.77,0,0,0-4.21,16.59,32.5,32.5,0,0,0,4.21,16.72,30.58,30.58,0,0,0,10.88,11.15A28.24,28.24,0,0,0,142.6,456.59ZM189.36,369h20.13V323.21h34V369H270v28.55H243.48v40.66q0,8,2.58,12.51t8.16,4.35a13.68,13.68,0,0,0,7.07-1.63,17.68,17.68,0,0,0,3.26-2.45l12.1,24.61q-.81.94-5.3,3a67.8,67.8,0,0,1-11.15,3.54,61.53,61.53,0,0,1-15.36,1.76q-15.36,0-25.43-8.84-9.91-8.83-9.92-27.6v-49.9H189.36ZM348.88,483.92q-17.82,0-31.82-7.61a56.45,56.45,0,0,1-21.75-20.8,62.22,62.22,0,0,1,0-60.65,56.83,56.83,0,0,1,21.75-21.21q14-7.87,31.82-7.88t31.54,7.88a56.12,56.12,0,0,1,21.48,21.21q7.75,13.33,7.75,30.33t-7.75,30.32a55.72,55.72,0,0,1-21.48,20.8Q366.83,483.92,348.88,483.92Zm0-28.55a28.18,28.18,0,0,0,14.95-3.81,25.84,25.84,0,0,0,9.79-10.87,36.61,36.61,0,0,0,0-31.41,25.81,25.81,0,0,0-9.79-10.88,26.75,26.75,0,0,0-14.95-4.08,27.2,27.2,0,0,0-15,4.08,27.74,27.74,0,0,0-10.06,10.88,36.61,36.61,0,0,0,0,31.41,27.78,27.78,0,0,0,10.06,10.87A28.67,28.67,0,0,0,348.88,455.37Zm116.18,25.29H430.79V369h34.27v18.08h-.68q.94-3.25,5.16-8.29a39.91,39.91,0,0,1,12-9q7.62-4.08,18.36-4.08a40.19,40.19,0,0,1,14,2.31q6.39,2.18,9.11,4.35l-13.46,28.15c-1.27-1.55-3.54-3-6.8-4.49a27,27,0,0,0-11.83-2.31,22,22,0,0,0-14.41,4.76A28.81,28.81,0,0,0,467.91,410a31.9,31.9,0,0,0-2.85,12.51Zm72.58,0V369h34.27V480.66Zm17.55-140.59a19.2,19.2,0,0,1-14.28-6,20.35,20.35,0,0,1,0-28.56,19.31,19.31,0,0,1,14.28-6.11,19.1,19.1,0,0,1,10.2,2.85,21.42,21.42,0,0,1,7.47,7.34,19,19,0,0,1,2.86,10.2,19.28,19.28,0,0,1-6.12,14.28A19.63,19.63,0,0,1,555.19,340.07Zm44.74,29H705.3l-60.1,87.16h56.29v24.47h-110l60.09-87.29H599.93Zm149.15,63.63A26.36,26.36,0,0,0,753,446a25.42,25.42,0,0,0,10.47,9.24,39,39,0,0,0,16.72,3.27,49.54,49.54,0,0,0,15.37-2.18,48.14,48.14,0,0,0,11.28-5.17,29,29,0,0,0,7.07-6.11l14.55,21.48a39.41,39.41,0,0,1-10.2,8.7,53,53,0,0,1-16,6.26q-9.66,2.44-24.34,2.44-18.36,0-32.36-7.2a53.14,53.14,0,0,1-21.75-20.67Q716,442.46,716,423.55A61.7,61.7,0,0,1,723,394.18a52,52,0,0,1,20.26-20.8q13.32-7.61,31.95-7.61,17.69,0,30.59,6.8a46.68,46.68,0,0,1,20,19.58q7.08,12.92,7.07,31.68c0,.72,0,2.22-.13,4.48a21,21,0,0,1-.28,4.35Zm50.85-21.48a21.42,21.42,0,0,0-2.72-9.25,21.16,21.16,0,0,0-7.75-8.29q-5.18-3.54-13.73-3.53t-14.28,3.39a22.83,22.83,0,0,0-8.43,8.16,23.17,23.17,0,0,0-3.13,9.52Z" transform="translate(446.84 -290.31)"/>
<g class="cls-3">
<path class="cls-2" d="M1057.73,449.79c-3.56,17.36-14.8,30.65-25.59,44-2.72,3.37-8.25,3.27-11.93.25-3.29-2.7-2.51-6.65-.81-10.24,6.29-13.3,14.83-25.54,14.67-41.45-.08-8,7.73-9,14.12-8.14C1057,435.4,1058.45,441.92,1057.73,449.79Z" transform="translate(446.84 -290.31)"/>
<path class="cls-4" d="M1057.6,367c.46,10.72-4.76,15-13.72,14.8-9.15-.2-13.45-5.53-13.38-14.51.07-10,5.09-15.26,15.16-14.53C1055,353.41,1058.84,359,1057.6,367Z" transform="translate(446.84 -290.31)"/>
</g>
<g class="cls-5">
<path class="cls-6" d="M989.45,409.07c0,15.14.07,30.28,0,45.41-.08,13.57-4.68,25.67-12.68,36.49-2.85,3.88-7,7-11.66,3.85-5.36-3.59-2.19-7.86.69-11.58,8.48-10.91,10.85-23.4,10.68-36.94-.31-25.22-.39-50.46,0-75.68.24-14.07-2.12-27.08-11-38.36-3.1-3.93-5.37-8.3-.53-11.77,4.61-3.31,8.67-.16,11.57,3.73,8.09,10.79,12.75,22.88,12.89,36.42C989.55,376.78,989.45,392.93,989.45,409.07Z" transform="translate(446.84 -290.31)"/>
<path class="cls-6" d="M868.47,407c0-14.67-.17-29.32,0-44a64,64,0,0,1,14-39.26c2.7-3.45,6.14-5.89,10.41-3s3.75,6.83.66,10.44c-11.06,12.91-12,28.25-11.71,44.25q.61,34.88,0,69.76c-.27,14.07,1.86,27.12,10.61,38.59,2.43,3.18,5.73,6.74,1.3,10.49S885,495.63,882,491.85A61.6,61.6,0,0,1,868.57,454C868.21,438.32,868.47,422.63,868.47,407Z" transform="translate(446.84 -290.31)"/>
</g>
</svg>